<?xml version="1.0"?>
<svg xmlns="http://www.w3.org/2000/svg" xmlns:xlink="http://www.w3.org/1999/xlink" xmlns:svgjs="http://svgjs.com/svgjs" version="1.1" width="512" height="512" x="0" y="0" viewBox="0 0 512 512" style="enable-background:new 0 0 512 512" xml:space="preserve" class=""><g><g xmlns="http://www.w3.org/2000/svg"><g><g><g><g><g id="XMLID_858_"><g id="XMLID_859_"><g id="XMLID_860_"><g id="XMLID_861_"><g id="XMLID_897_"><g id="XMLID_898_"><g id="XMLID_899_"><g id="XMLID_900_"><g id="XMLID_901_"><g id="XMLID_902_"><g id="XMLID_903_"><g id="XMLID_904_"><g id="XMLID_905_"><g id="XMLID_906_"><g id="XMLID_907_"><circle cx="256" cy="256" fill="#5b5b5b" r="256" data-original="#5b5b5b" style="" class=""/></g></g></g></g></g></g></g></g></g></g></g></g></g></g></g></g></g></g></g><path d="m502.915 323.839-208.613-224.908c-92.692-15.937-148.323 26.073-140.439 75.139s-76.235 99.541-76.235 99.541l232.628 232.628c93.262-20.125 167.622-91.064 192.659-182.4z" fill="#3f3f3f" data-original="#3f3f3f" style="" class=""/><g><path d="m410.802 241.149c-42.001-28.606-76.091-49.18-76.091-49.18v74.699 9.743 85.665c-9.463-2.331-20.167-2.385-30.982.348-28.901 7.303-47.654 31.723-41.887 54.544s33.87 35.402 62.77 28.099c25.769-6.512 43.455-26.634 42.899-47.097h.03v-109.903c28.907 12.009 67.274 32.886 72.955 60.721 0 .001 13.223-78.409-29.694-107.639z" fill="#3df4e2" data-original="#3df4e2" style="" class=""/><path d="m136.862 63.916v28.065 44.946 61.798c-9.463-2.331-20.167-2.385-30.982.348-28.901 7.303-47.654 31.723-41.887 54.544s33.87 35.402 62.77 28.099c25.769-6.512 43.455-26.634 42.899-47.097h.03v-90.391l91.781 20.412v94.912c-9.463-2.331-20.167-2.385-30.982.348-28.901 7.303-47.654 31.723-41.887 54.544s33.87 35.402 62.77 28.099c25.769-6.512 43.455-26.634 42.899-47.097h.03v-123.504-25.134-47.877z" fill="#32c9b7" data-original="#ff5f89" style="" class=""/><path d="m294.3 98.93v196.52h-.03c.56 20.46-17.13 40.58-42.9 47.09-11.38 2.88-22.63 2.67-32.44-.02v-78.57c3.63-1.66 7.49-3.02 11.56-4.05 10.82-2.73 21.52-2.68 30.98-.35v-94.91l-42.54-9.46v-73.01z" fill="#32c9b7" data-original="#ff2c5a" style="" class=""/><path d="m440.5 348.79c-5.69-27.84-44.05-48.71-72.96-60.72v109.9h-.03c.33 12.04-5.66 23.96-15.9 33.07v-228.61c13.95 8.76 35.29 22.44 59.19 38.72 42.92 29.23 29.7 107.64 29.7 107.64z" fill="#32c9b7" data-original="#32c9b7" style="" class=""/></g></g></g></svg>
